<?xml version="1.0" standalone="no"?>
<!DOCTYPE svg PUBLIC "-//W3C//DTD SVG 20010904//EN"
 "http://www.w3.org/TR/2001/REC-SVG-20010904/DTD/svg10.dtd">
<svg version="1.0" xmlns="http://www.w3.org/2000/svg"
 width="16.000000pt" height="16.000000pt" viewBox="0 0 16.000000 16.000000"
 preserveAspectRatio="xMidYMid meet">
<metadata>
Created by potrace 1.11, written by Peter Selinger 2001-2013
</metadata>
<g transform="translate(0.000000,16.000000) scale(0.003125,-0.003125)"
fill="#000000" stroke="none">
<path d="M1310 3470 c-121 -12 -333 -41 -396 -54 -12 -2 -38 -7 -57 -10 -76
-12 -235 -59 -312 -92 -123 -53 -164 -101 -166 -194 -2 -56 21 -100 50 -100
10 0 60 20 112 44 89 42 289 110 354 122 17 3 48 9 70 14 22 5 67 12 100 15
33 4 62 8 65 10 13 8 186 19 280 18 116 0 154 -6 247 -34 121 -38 194 -124
165 -195 -36 -86 -172 -174 -382 -246 -99 -34 -326 -91 -342 -86 -21 7 159
250 271 366 28 29 51 58 51 65 0 35 -151 81 -235 72 -34 -3 -50 -14 -105 -72
-240 -251 -424 -623 -446 -901 -7 -79 11 -221 30 -247 30 -41 171 -54 222 -20
24 16 25 19 18 78 -11 93 -11 136 2 202 23 127 75 271 97 272 7 0 42 4 78 8
l66 6 18 -68 c47 -174 128 -333 243 -477 112 -140 149 -176 185 -180 73 -9
220 45 232 85 8 26 2 35 -95 136 -160 167 -227 255 -338 445 l-51 88 27 6 c15
3 45 11 67 16 22 6 49 12 59 14 60 11 232 71 305 106 361 172 436 437 183 640
-66 53 -212 114 -333 138 -71 14 -242 19 -339 10z"/>
<path d="M3344 3224 c-20 -7 -47 -23 -61 -36 -35 -32 -160 -223 -229 -348 -31
-58 -63 -115 -71 -127 l-13 -22 -42 19 c-68 30 -180 7 -297 -62 -76 -46 -208
-177 -279 -278 -94 -134 -259 -300 -298 -300 -33 0 95 272 218 459 53 82 57
101 29 147 -34 55 -129 69 -186 26 -91 -67 -255 -432 -272 -606 -19 -191 180
-237 362 -82 l51 44 17 -42 c27 -66 102 -100 215 -97 65 1 141 35 205 91 l45
40 20 -51 c26 -62 68 -83 153 -77 68 5 143 46 226 124 l55 51 9 -26 c27 -76
81 -123 169 -146 204 -55 386 41 587 307 39 51 78 109 88 128 37 73 52 84 115
88 32 2 61 -1 64 -7 4 -5 -12 -40 -35 -78 -65 -105 -85 -156 -88 -217 -6 -145
75 -233 206 -221 130 10 291 172 427 429 33 62 35 71 23 90 -33 49 -75 27
-140 -71 -93 -138 -174 -238 -221 -269 -31 -20 -56 -6 -56 32 0 36 85 193 140
257 28 32 50 63 50 68 0 37 -110 157 -147 161 -10 1 -43 2 -73 3 -30 2 -58 3
-63 4 -4 0 0 15 9 33 21 40 13 102 -17 134 -58 62 -183 -4 -250 -132 -16 -32
-20 -54 -17 -95 2 -30 7 -61 11 -69 9 -20 -133 -212 -222 -301 -91 -90 -149
-122 -219 -123 -42 0 -57 4 -68 19 -19 26 -18 44 4 51 182 61 381 226 428 355
34 94 9 180 -62 214 -38 18 -136 23 -194 10 -114 -25 -241 -126 -338 -269 -51
-76 -143 -197 -190 -250 -34 -39 -152 -136 -165 -136 -36 0 211 502 375 760
136 216 151 245 156 295 4 44 1 53 -22 77 -32 31 -73 39 -122 22z m-470 -681
c-2 -105 -191 -411 -290 -469 -51 -30 -67 -30 -82 -1 -19 35 -11 65 43 172
101 198 239 351 310 342 17 -2 20 -9 19 -44z m896 9 c0 -28 -52 -102 -111
-158 -61 -57 -137 -110 -145 -101 -6 6 48 93 93 149 38 47 133 128 150 128 7
0 13 -8 13 -18z"/>
<path d="M2331 3077 c-13 -6 -42 -33 -64 -59 -32 -38 -41 -57 -44 -95 -5 -58
10 -89 56 -120 64 -44 149 -20 204 57 55 78 51 164 -11 209 -34 24 -102 28
-141 8z"/>
</g>
</svg>
