<?xml version="1.0" encoding="UTF-8" standalone="no"?>
<!-- Created with Inkscape (http://www.inkscape.org/) -->

<svg
   xmlns:osb="http://www.openswatchbook.org/uri/2009/osb"
   xmlns:dc="http://purl.org/dc/elements/1.1/"
   xmlns:cc="http://creativecommons.org/ns#"
   xmlns:rdf="http://www.w3.org/1999/02/22-rdf-syntax-ns#"
   xmlns:svg="http://www.w3.org/2000/svg"
   xmlns="http://www.w3.org/2000/svg"
   xmlns:sodipodi="http://sodipodi.sourceforge.net/DTD/sodipodi-0.dtd"
   xmlns:inkscape="http://www.inkscape.org/namespaces/inkscape"
   width="100.75238mm"
   height="26.251324mm"
   viewBox="0 0 100.75239 26.251324"
   version="1.1"
   id="svg8"
   sodipodi:docname="logo2.svg"
   inkscape:version="0.92.1 unknown">
  <defs
     id="defs2">
    <linearGradient
       id="linearGradient5957"
       osb:paint="solid">
      <stop
         style="stop-color:#000000;stop-opacity:1;"
         offset="0"
         id="stop5955" />
    </linearGradient>
  </defs>
  <sodipodi:namedview
     id="base"
     pagecolor="#ffffff"
     bordercolor="#666666"
     borderopacity="1.0"
     inkscape:pageopacity="0.0"
     inkscape:pageshadow="2"
     inkscape:zoom="1.979899"
     inkscape:cx="140.36481"
     inkscape:cy="79.931425"
     inkscape:document-units="mm"
     inkscape:current-layer="text12"
     showgrid="false"
     inkscape:measure-start="146.093,693.975"
     inkscape:measure-end="201.273,697.258"
     inkscape:window-width="1855"
     inkscape:window-height="1056"
     inkscape:window-x="65"
     inkscape:window-y="24"
     inkscape:window-maximized="1"
     fit-margin-top="0"
     fit-margin-left="0"
     fit-margin-right="0"
     fit-margin-bottom="0"
     showguides="true"
     inkscape:guide-bbox="true" />
  <metadata
     id="metadata5">
    <rdf:RDF>
      <cc:Work
         rdf:about="">
        <dc:format>image/svg+xml</dc:format>
        <dc:type
           rdf:resource="http://purl.org/dc/dcmitype/StillImage" />
        <dc:title></dc:title>
      </cc:Work>
    </rdf:RDF>
  </metadata>
  <g
     inkscape:label="Layer 1"
     inkscape:groupmode="layer"
     id="layer1"
     transform="translate(-31.189123,-99.567071)">
    <g
       aria-label="Rider 手記"
       style="font-style:normal;font-variant:normal;font-weight:normal;font-stretch:normal;font-size:10.58333302px;line-height:1.25;font-family:'Eyes Wide Open Bold Personal Us';-inkscape-font-specification:'Eyes Wide Open Bold Personal Us';letter-spacing:0px;word-spacing:0px;fill:#000000;fill-opacity:1;stroke:none;stroke-width:0.26458332"
       id="text12"
       transform="matrix(3,0,0,3,-121.48082,-228.32548)">
      <path
         d="m 60.428898,110.87033 q 0.116416,-0.0741 0.381,-0.0741 0.264583,0 0.518583,0.0635 0.264583,0.0635 0.433917,0.16934 0.169333,0.10583 0.105833,0.23283 -0.41275,0.381 -0.867833,0.9525 -0.455084,0.56092 -0.85725,1.22767 1.449916,-0.29634 2.307166,-0.64559 0.85725,-0.35983 1.227667,-0.70908 0.370417,-0.34925 0.3175,-0.66675 -0.05292,-0.3175 -0.41275,-0.53975 -0.359833,-0.22225 -0.973667,-0.32808 -0.60325,-0.11642 -1.344083,-0.0529 -0.486833,0.0423 -1.026583,0.11642 -0.529167,0.0635 -1.0795,0.1905 -0.550334,0.127 -1.11125,0.32808 -0.550334,0.1905 -1.0795,0.47625 -0.22225,0.127 -0.34925,-0.0106 -0.116417,-0.13759 -0.127,-0.37042 -0.01058,-0.24342 0.105833,-0.508 0.116417,-0.26458 0.370417,-0.40217 0.47625,-0.254 1.04775,-0.42333 0.5715,-0.16933 1.164166,-0.27517 0.592667,-0.11641 1.17475,-0.17991 0.582084,-0.0741 1.0795,-0.11642 1.090084,-0.0952 1.9685,0.13758 0.889,0.23284 1.42875,0.66675 0.550334,0.42334 0.6985,0.99484 0.15875,0.56091 -0.201083,1.12183 -0.34925,0.56092 -1.291167,1.06892 -0.931333,0.49741 -2.561166,0.80433 0.677333,1.25942 1.3335,2.04258 0.66675,0.77259 1.100666,1.16417 0.116417,0.10583 0.08467,0.21167 -0.02117,0.10583 -0.137583,0.20108 -0.116417,0.0952 -0.296334,0.15875 -0.179916,0.0741 -0.370416,0.11642 -0.1905,0.0423 -0.359834,0.0318 -0.169333,0 -0.254,-0.0635 -0.28575,-0.3175 -0.582083,-0.65617 -0.28575,-0.32808 -0.5715,-0.75142 -0.275167,-0.42333 -0.518583,-0.97366 -0.243417,-0.56092 -0.433917,-1.32292 l -0.814917,0.0952 q -0.306916,0.6985 -0.433916,1.38642 -0.127,0.67733 0.05292,1.27 -0.03175,0.15875 -0.243416,0.23283 -0.211667,0.0741 -0.465667,0.0635 -0.243417,-0.0106 -0.4445,-0.10583 -0.201083,-0.0847 -0.201083,-0.254 -0.201084,-0.762 -0.03175,-1.61925 0.169333,-0.86784 0.560916,-1.70392 0.391584,-0.83608 0.92075,-1.55575 0.529167,-0.73025 1.058334,-1.21708 z"
         style="opacity:1;fill:#f00033;fill-opacity:1"
         id="path5286"
         inkscape:connector-curvature="0" />
      <path
         d="m 65.360069,113.39974 q 0.201084,-0.22225 0.465667,-0.23283 0.264583,-0.0212 0.455083,0.0952 0.1905,0.11642 0.243417,0.32808 0.0635,0.21167 -0.137583,0.46567 -0.09525,0.11642 -0.243417,0.35983 -0.148167,0.23284 -0.306917,0.51859 -0.15875,0.28575 -0.3175,0.59266 -0.148166,0.29634 -0.254,0.53975 -0.105833,0.24342 -0.137583,0.39159 -0.03175,0.13758 0.04233,0.11641 0.264584,-0.13758 0.497417,-0.34925 0.243417,-0.22225 0.465667,-0.47625 0.22225,-0.254 0.433916,-0.52916 0.211667,-0.28575 0.41275,-0.53975 0.127,-0.14817 0.243417,-0.16934 0.127,-0.0317 0.201083,0.0318 0.07408,0.0635 0.07408,0.20109 0.01058,0.127 -0.08467,0.29633 -0.254,0.37042 -0.560917,0.80433 -0.306916,0.42334 -0.656166,0.78317 -0.34925,0.34925 -0.73025,0.56092 -0.381,0.21166 -0.79375,0.14816 -0.1905,-0.0317 -0.328084,-0.13758 -0.127,-0.0952 -0.201083,-0.23283 -0.0635,-0.14817 -0.08467,-0.3175 -0.01058,-0.16934 0.02117,-0.33867 0.0635,-0.39158 0.22225,-0.84667 0.15875,-0.45508 0.34925,-0.85725 0.1905,-0.41275 0.381,-0.73025 0.201083,-0.32808 0.328083,-0.47625 z m 1.524,-0.52916 q -0.211666,0.0635 -0.41275,0 -0.201083,-0.0741 -0.328083,-0.23284 -0.116417,-0.15875 -0.127,-0.381 -0.01058,-0.23283 0.15875,-0.48683 0.116417,-0.16933 0.211667,-0.26458 0.09525,-0.10584 0.28575,-0.17992 0.15875,-0.0635 0.338666,-0.0423 0.179917,0.0212 0.3175,0.11641 0.137584,0.0847 0.211667,0.254 0.07408,0.16934 0.03175,0.40217 -0.0635,0.30692 -0.264583,0.52917 -0.201084,0.22225 -0.423334,0.28575 z"
         style="fill:#f00033;fill-opacity:1"
         id="path5288"
         inkscape:connector-curvature="0" />
      <path
         d="m 71.454416,110.84916 q 0.22225,-0.24342 0.465666,-0.28575 0.254,-0.0529 0.433917,0.0529 0.179917,0.10583 0.232833,0.33866 0.05292,0.23284 -0.127,0.56092 -0.41275,0.6985 -0.857249,1.38642 -0.433917,0.68791 -0.836084,1.47108 -0.254,0.508 -0.47625,0.98425 -0.22225,0.46567 -0.359833,0.78317 -0.105833,0.24341 -0.127,0.33866 -0.01058,0.0847 0.03175,0.0847 0.05292,-0.0106 0.148167,-0.0847 0.09525,-0.0741 0.211666,-0.15875 0.402167,-0.30691 0.719667,-0.73025 0.3175,-0.42333 0.635,-0.8255 0.137583,-0.17991 0.264583,-0.23283 0.137583,-0.0529 0.22225,0 0.08467,0.0423 0.09525,0.17992 0.01058,0.13758 -0.08467,0.33866 -0.254,0.37042 -0.560916,0.80434 -0.306917,0.42333 -0.656167,0.77258 -0.34925,0.34925 -0.73025,0.56092 -0.381,0.21166 -0.79375,0.14816 -0.306916,-0.0529 -0.433916,-0.24341 -0.116417,-0.20109 -0.148167,-0.4445 -0.34925,0.37041 -0.751417,0.56091 -0.402166,0.20109 -0.941916,0.127 -0.4445,-0.0741 -0.635,-0.29633 -0.179917,-0.22225 -0.179917,-0.56092 0,-0.33866 0.137583,-0.71966 0.137584,-0.39159 0.370417,-0.762 0.243417,-0.37042 0.560917,-0.70909 0.3175,-0.33866 0.677333,-0.59266 0.370417,-0.254 0.751417,-0.39159 0.391583,-0.13758 0.772583,-0.127 0.254,0.0635 0.41275,0.21167 0,-0.0212 0.02117,-0.0423 l 0.254,-0.47625 q 0.201083,-0.381 0.402166,-0.71967 0.201084,-0.33867 0.370417,-0.60325 0.179917,-0.27517 0.306917,-0.45508 0.137583,-0.17992 0.201083,-0.24342 z m -2.148417,3.70417 v -0.0106 q 0.01058,-0.0318 0.04233,-0.11641 0.04233,-0.0952 0.0635,-0.20109 0.03175,-0.11641 0.03175,-0.20108 0.01058,-0.0952 -0.04233,-0.127 -0.211666,-0.0635 -0.497416,0.14817 -0.275167,0.21166 -0.550334,0.56091 -0.275166,0.34925 -0.508,0.762 -0.232833,0.41275 -0.359833,0.74084 -0.09525,0.26458 -0.04233,0.40216 0.0635,0.13759 0.127,0.14817 0.15875,0.0212 0.34925,-0.10583 0.201083,-0.13759 0.402166,-0.381 0.211667,-0.24342 0.423334,-0.5715 0.211666,-0.32809 0.391583,-0.6985 z"
         style="fill:#f00033;fill-opacity:1"
         id="path5290"
         inkscape:connector-curvature="0" />
      <path
         d="m 74.497124,114.77558 q -0.179917,0.24341 -0.423333,0.46566 -0.232834,0.21167 -0.508,0.40217 -0.264584,0.17992 -0.560917,0.32808 -0.28575,0.13759 -0.5715,0.23284 v 0.0318 q 0,0.24341 0.1905,0.28575 0.3175,0.0847 0.613833,-0.0529 0.306917,-0.14817 0.60325,-0.41275 0.296334,-0.27517 0.5715,-0.62442 0.28575,-0.35983 0.550334,-0.70908 0.201083,-0.1905 0.338666,-0.20108 0.137584,-0.0212 0.1905,0.0847 0.0635,0.0952 0.03175,0.27517 -0.03175,0.16933 -0.15875,0.34925 -0.28575,0.41275 -0.624416,0.83608 -0.338667,0.42334 -0.73025,0.74084 -0.391584,0.3175 -0.846667,0.48683 -0.455083,0.16933 -0.963083,0.0741 -1.153584,-0.17991 -1.153584,-1.16416 0,-0.381 0.211667,-0.889 0.179917,-0.41275 0.4445,-0.81492 0.275167,-0.40217 0.613833,-0.70908 0.34925,-0.3175 0.751417,-0.49742 0.41275,-0.17992 0.878417,-0.15875 0.47625,0.0212 0.677333,0.24342 0.201083,0.22225 0.201083,0.53975 0,0.21166 -0.09525,0.4445 -0.08467,0.22225 -0.232833,0.41275 z m -1.830917,0.67733 q -0.01058,0.0106 -0.01058,0.0212 0.338667,-0.16934 0.645583,-0.43392 0.3175,-0.26458 0.560917,-0.58208 h -0.01058 q 0.1905,-0.29634 0.1905,-0.41275 0,-0.11642 -0.15875,-0.0317 -0.15875,0.0847 -0.381,0.29633 -0.22225,0.20108 -0.455084,0.508 -0.232833,0.30692 -0.381,0.635 z"
         style="fill:#f00033;fill-opacity:1"
         id="path5292"
         inkscape:connector-curvature="0" />
      <path
         d="m 75.347098,115.19891 q -0.116417,0.16933 -0.254,0.20108 -0.127,0.0212 -0.22225,-0.0423 -0.09525,-0.0635 -0.116417,-0.1905 -0.02117,-0.13758 0.09525,-0.29633 0.05292,-0.0741 0.07408,-0.10584 0.02117,-0.0423 0.04233,-0.0741 0.03175,-0.0423 0.07408,-0.10583 0.04233,-0.0635 0.127,-0.1905 -0.137583,-0.1905 -0.105833,-0.55034 0.02117,-0.24341 0.1905,-0.508 0.179916,-0.27516 0.41275,-0.45508 0.232833,-0.17992 0.465666,-0.20108 0.243417,-0.0318 0.391584,0.20108 0.137583,0.22225 0.09525,0.42333 -0.04233,0.1905 -0.179917,0.40217 0.232833,-0.0106 0.486833,-0.0212 0.254,-0.0212 0.402167,0.0847 0.09525,0.0635 0.22225,0.17992 0.137583,0.11641 0.243417,0.254 0.116416,0.13758 0.148166,0.27516 0.04233,0.127 -0.05292,0.20109 -0.09525,0.0847 -0.28575,0.32808 -0.1905,0.24342 -0.34925,0.52917 -0.15875,0.28575 -0.243417,0.53975 -0.07408,0.254 0.04233,0.34925 0.07408,0.0635 0.201084,-0.0212 0.137583,-0.0953 0.296333,-0.26458 0.15875,-0.16934 0.328083,-0.39159 0.169334,-0.23283 0.3175,-0.43391 0.148167,-0.21167 0.254,-0.381 0.116417,-0.16934 0.15875,-0.22225 0.116417,-0.14817 0.243417,-0.1905 0.127,-0.0423 0.211667,0.0106 0.08467,0.0423 0.105833,0.15875 0.02117,0.11642 -0.07408,0.27517 -0.22225,0.41275 -0.508,0.85725 -0.28575,0.4445 -0.613834,0.80433 -0.3175,0.34925 -0.687916,0.55033 -0.370417,0.20109 -0.772584,0.13759 -0.306916,-0.0529 -0.508,-0.254 -0.201083,-0.21167 -0.254,-0.51859 -0.07408,-0.47625 0.105834,-0.87841 0.1905,-0.41275 0.455083,-0.78317 0.105833,-0.15875 0.08467,-0.21167 -0.01058,-0.0635 -0.105834,-0.0635 -0.09525,-0.0106 -0.254,0.0106 -0.148166,0.0106 -0.306916,0.0106 -0.08467,0.11642 -0.15875,0.23283 -0.0635,0.10584 -0.22225,0.33867 z"
         style="fill:#f00033;fill-opacity:1"
         id="path5294"
         inkscape:connector-curvature="0" />
      <text
         xml:space="preserve"
         style="font-style:normal;font-variant:normal;font-weight:normal;font-stretch:normal;font-size:3.52777767px;line-height:1.25;font-family:Sawasdee;-inkscape-font-specification:Sawasdee;letter-spacing:0px;word-spacing:0px;fill:#000000;fill-opacity:1;stroke:none;stroke-width:0.02333478"
         x="44.597523"
         y="106.82265"
         id="text17"><tspan
           sodipodi:role="line"
           id="tspan15"
           x="44.597523"
           y="109.90945"
           style="stroke-width:0.02333478" /></text>
      <text
         xml:space="preserve"
         style="font-style:normal;font-variant:normal;font-weight:normal;font-stretch:normal;font-size:12.2205801px;line-height:1.25;font-family:Sawasdee;-inkscape-font-specification:Sawasdee;letter-spacing:0px;word-spacing:0px;fill:#000000;fill-opacity:1;stroke:none;stroke-width:0.08083405"
         x="51.283581"
         y="121.20622"
         id="text4502"
         transform="scale(1.1547005,0.86602543)"><tspan
           sodipodi:role="line"
           id="tspan4500"
           x="51.283581"
           y="131.89923"
           style="font-style:normal;font-variant:normal;font-weight:normal;font-stretch:normal;font-family:Anurati;-inkscape-font-specification:Anurati;stroke-width:0.08083405" /></text>
      <path
         style="opacity:1;fill:#4d4d4d;fill-opacity:1;stroke:none;stroke-width:0.00626881"
         d="m 51.187014,113.12425 -0.297033,-0.216 1.215408,-5e-4 1.215407,-5e-4 v 0.21703 0.21702 h -0.918374 -0.918374 z"
         id="path4504"
         inkscape:connector-curvature="0" />
      <path
         style="opacity:1;fill:#4d4d4d;fill-opacity:1;stroke:none;stroke-width:0.00628733"
         d="m 51.198199,113.12425 -0.285847,-0.21595 h 1.221669 1.221669 v 0.217 0.217 l -0.935821,-5e-4 -0.935821,-5e-4 z"
         id="path4506"
         inkscape:connector-curvature="0" />
      <path
         style="opacity:1;fill:#4d4d4d;fill-opacity:1;stroke:none;stroke-width:0.00627962"
         d="m 50.923478,115.09346 c 0.005,-0.0103 0.140954,-0.10828 0.302168,-0.21777 l 0.293113,-0.19907 h 0.922294 0.922294 v 0.21777 0.21777 h -1.224461 c -0.715826,0 -1.2207,-0.008 -1.215408,-0.0187 z"
         id="path4512"
         inkscape:connector-curvature="0" />
      <rect
         style="opacity:1;fill:#4d4d4d;fill-opacity:1;stroke:#000000;stroke-width:0.00852085"
         id="rect4495"
         width="1.8043175"
         height="0.42759225"
         x="51.559029"
         y="113.79263" />
      <path
         style="font-style:normal;font-variant:normal;font-weight:normal;font-stretch:normal;font-size:10.58333302px;line-height:1.25;font-family:'Eyes Wide Open Bold Personal Us';-inkscape-font-specification:'Eyes Wide Open Bold Personal Us';letter-spacing:0px;word-spacing:0px;opacity:1;fill:#4d4d4d;fill-opacity:1;stroke:none;stroke-width:0.00626861"
         d="m 84.17708,113.12439 0.297028,-0.21599 -1.215385,-5e-4 -1.215384,-5e-4 v 0.21702 0.21701 h 0.918356 0.918357 z"
         id="path4504-3"
         inkscape:connector-curvature="0" />
      <path
         style="font-style:normal;font-variant:normal;font-weight:normal;font-stretch:normal;font-size:10.58333302px;line-height:1.25;font-family:'Eyes Wide Open Bold Personal Us';-inkscape-font-specification:'Eyes Wide Open Bold Personal Us';letter-spacing:0px;word-spacing:0px;opacity:1;fill:#4d4d4d;fill-opacity:1;stroke:none;stroke-width:0.00628712"
         d="m 84.165895,113.12439 0.285843,-0.21594 h -1.221646 -1.221647 v 0.21699 0.21699 l 0.935804,-5e-4 0.935803,-5e-4 z"
         id="path4506-6"
         inkscape:connector-curvature="0" />
      <path
         style="font-style:normal;font-variant:normal;font-weight:normal;font-stretch:normal;font-size:10.58333302px;line-height:1.25;font-family:'Eyes Wide Open Bold Personal Us';-inkscape-font-specification:'Eyes Wide Open Bold Personal Us';letter-spacing:0px;word-spacing:0px;opacity:1;fill:#4d4d4d;fill-opacity:1;stroke:none;stroke-width:0.00627941"
         d="m 84.440612,115.09352 c -0.005,-0.0103 -0.140952,-0.10829 -0.302162,-0.21777 l -0.293108,-0.19906 h -0.922277 -0.922277 v 0.21776 0.21776 h 1.224438 c 0.715813,0 1.220678,-0.008 1.215386,-0.0187 z"
         id="path4512-7"
         inkscape:connector-curvature="0" />
      <rect
         style="font-style:normal;font-variant:normal;font-weight:normal;font-stretch:normal;font-size:10.58333302px;line-height:1.25;font-family:'Eyes Wide Open Bold Personal Us';-inkscape-font-specification:'Eyes Wide Open Bold Personal Us';letter-spacing:0px;word-spacing:0px;opacity:1;fill:#4d4d4d;fill-opacity:1;stroke:#000000;stroke-width:0.00852058"
         id="rect4495-5"
         width="1.8042836"
         height="0.42757291"
         x="-83.805077"
         y="113.79273"
         transform="scale(-1,1)" />
    </g>
  </g>
</svg>
